<svg xmlns="http://www.w3.org/2000/svg" version="1.1" xmlns:xlink="http://www.w3.org/1999/xlink" xmlns:svgjs="http://svgjs.dev/svgjs" width="1440" height="560" preserveAspectRatio="none" viewBox="0 0 1440 560"><g mask="url(&quot;#SvgjsMask1772&quot;)" fill="none"><rect width="1440" height="560" x="0" y="0" fill="url(&quot;#SvgjsLinearGradient1773&quot;)"></rect><path d="M1440 0L1093.53 0L1440 267.35z" fill="rgba(255, 255, 255, .1)"></path><path d="M1093.53 0L1440 267.35L1440 333.99L804.98 0z" fill="rgba(255, 255, 255, .075)"></path><path d="M804.98 0L1440 333.99L1440 449.37L429.51 0z" fill="rgba(255, 255, 255, .05)"></path><path d="M429.51 0L1440 449.37L1440 517.31L423.94 0z" fill="rgba(255, 255, 255, .025)"></path><path d="M0 560L634.24 560L0 506.11z" fill="rgba(0, 0, 0, .1)"></path><path d="M0 506.11L634.24 560L812.77 560L0 369.23z" fill="rgba(0, 0, 0, .075)"></path><path d="M0 369.23L812.77 560L1196.1399999999999 560L0 175.24z" fill="rgba(0, 0, 0, .05)"></path><path d="M0 175.24L1196.1399999999999 560L1278.1799999999998 560L0 100.45z" fill="rgba(0, 0, 0, .025)"></path></g><defs><mask id="SvgjsMask1772"><rect width="1440" height="560" fill="#ffffff"></rect></mask><linearGradient x1="50%" y1="100%" x2="50%" y2="0%" gradientUnits="userSpaceOnUse" id="SvgjsLinearGradient1773"><stop stop-color="rgba(14, 42, 71, 1)" offset="0"></stop><stop stop-color="rgba(255, 0, 93, 1)" offset="0.69"></stop></linearGradient></defs></svg>